<svg width="48" height="48" viewBox="0 0 48 48" fill="none" xmlns="http://www.w3.org/2000/svg">
    <path d="M19.7352 18.2887L13.2823 36.8887L14.2264 37.8315L20.1086 20.7739L31.4314 32.8272L32.4267 31.9574L19.7352 18.2887Z" fill="white"/>
    <path d="M20.7307 24.8745L19.8597 25.8686L32.5512 39.2887L39.2702 19.2828L38.3993 19.0342L32.178 36.9278L20.7307 24.8745Z" fill="white"/>
    <path d="M40.2646 15.6915C40.7764 16.5157 39.539 17.2874 39.0386 16.6342C38.0973 15.4053 37.277 14.6243 35.7556 13.5606C35.5709 13.4315 35.4586 13.2215 35.4576 12.9963L35.4228 5.52696C35.4201 4.92135 34.69 4.61645 34.2562 5.03977L28.5394 10.6203C28.399 10.7575 28.2048 10.8274 28.0087 10.8155C22.764 10.4971 19.6444 11.79 15.6001 15.0557C15.4544 15.1733 15.2662 15.2288 15.0802 15.2063L6.99889 14.2264C6.39767 14.1535 6.00325 14.837 6.36788 15.3199L10.8587 21.2674C10.9921 21.444 11.0294 21.6795 10.967 21.8918C5.85932 39.2798 28.4882 52.3037 40.5201 35.7778C40.99 35.1324 42.2224 35.9196 41.7034 36.7282C30.8738 53.6009 4.32423 43.6073 9.29272 22.1621C9.33944 21.9603 9.29739 21.7409 9.17187 21.5763L2.88489 13.3242C2.51773 12.8423 2.91061 12.1563 3.51272 12.2281L14.4163 13.5276C14.6215 13.5521 14.8264 13.4821 14.9778 13.3416C18.4963 10.0778 23.3374 8.59488 27.4365 9.10791C27.6494 9.13457 27.864 9.06747 28.0185 8.91862L35.8186 1.39386C36.2534 0.974607 36.9792 1.27995 36.9823 1.8834L37.0377 12.2076C37.0387 12.4292 37.1476 12.6364 37.3282 12.7653C38.6095 13.6793 39.454 14.3859 40.2646 15.6915Z" fill="white"/>
    <style>
        path { fill: #070f12; }
        @media (prefers-color-scheme: dark) {
            path { fill: #ebf3f7; }
        }
    </style>

</svg>
